<svg xmlns="http://www.w3.org/2000/svg" viewBox="0 0 351.43 224.95"><defs><style>.cls-1{fill:#ea4335;}.cls-2{fill:#34a853;}.cls-3{fill:#4285f4;}.cls-4{fill:#fbbc05;}</style></defs><title>logo</title><g id="Layer_2" data-name="Layer 2"><g id="Layer_1-2" data-name="Layer 1"><g id="Group_39" data-name="Group 39"><g id="Group_23" data-name="Group 23"><g id="Group_22" data-name="Group 22"><path class="cls-1" d="M164.07,20.73q-.54,5.49-1.35,11l.78,14.51c.09,1.65-2.23,1.75-2.71.37a39.3,39.3,0,0,1-1.18-4.07c-.27,2.73-.9,5.48-1.24,8.15a145.71,145.71,0,0,0-1.1,15.76c0,1.52-2.39,1.93-2.71.37a49.16,49.16,0,0,1-.94-8.11q-2.09,6-4.64,11.88c-1.64,5.62-3.59,11.37-3.47,17.24a1.38,1.38,0,0,1-2.71.37c-.32-1.13-.57-2.27-.78-3.41q-1.67,3-3.44,6c-1.48,2.47-5,1.25-5.16-1.4a31.05,31.05,0,0,0-1.15-6.27c-.27-.88-.55-1.76-.83-2.63s-.56-1.56-.86-2.34c-.34,1.32-.69,2.62-1,3.94-.39,1.49-2.83,1.2-2.72-.37a32.56,32.56,0,0,0-.72-10.13c-.6-2.5-2-5-2.15-7.58a12.05,12.05,0,0,1-.72-1.38c-.61-1.37-1.15-2.77-1.69-4.17.07,1.89.15,3.78.27,5.67.1,1.64-2.24,1.76-2.71.36a53.91,53.91,0,0,1-2.79-17.95,49.36,49.36,0,0,1-.42-6.43,23.53,23.53,0,0,1-2.23,7.32,1.4,1.4,0,0,1-1.91.47,1.43,1.43,0,0,1-.67-1.19c.49-4.74,1.15-9.56,1.58-14.36l.33-9.17a143,143,0,0,1-.89-19.52,2.59,2.59,0,0,1,.81-1.92A2.74,2.74,0,0,1,115.47,0h.24a2.74,2.74,0,0,1,2.67,2.15l4.68,19.92c0,.23.1.46.16.72a3.36,3.36,0,0,0,6.52.09c.08-.28.15-.57.23-.85L135.1,2.83a3.78,3.78,0,0,1,7.32.08L147,22.13l0,.15a3.36,3.36,0,0,0,6.54,0,1.16,1.16,0,0,1,.08-.32L158.89,2a2.75,2.75,0,0,1,5.41.72,2,2,0,0,1-.07.54,2.78,2.78,0,0,1,.21.57C165.94,9.5,165.3,15.15,164.07,20.73Z"/></g></g><g id="Group_28" data-name="Group 28"><g id="Group_27" data-name="Group 27"><g id="Group_26" data-name="Group 26"><path id="Path_4" data-name="Path 4" class="cls-2" d="M40.87,158l4-7a2.87,2.87,0,0,0-5-2.87l-4.25,7.35a26.71,26.71,0,0,0-18,0l-4.25-7.36a2.87,2.87,0,0,0-5,2.87l4,7A26.71,26.71,0,0,0,0,180.61,2,2,0,0,0,0,181v35a2.88,2.88,0,0,0,5.75,0V183.42H47.57V216a2.87,2.87,0,1,0,5.74,0V181a1.58,1.58,0,0,0,0-.38A26.69,26.69,0,0,0,40.87,158ZM17.8,172.94a2.33,2.33,0,1,1,0-4.65h0a2.33,2.33,0,0,1,0,4.65Zm17.74,0a2.33,2.33,0,1,1,0-4.65h0a2.33,2.33,0,0,1,0,4.65Z"/></g></g></g><g id="Group_32" data-name="Group 32"><g id="Group_30" data-name="Group 30"><path class="cls-3" d="M347.64,196.25A26.47,26.47,0,0,1,325,209.07H318.1l20.49-49.19A26.51,26.51,0,0,1,347.64,196.25Z"/></g><g id="Group_31" data-name="Group 31"><path class="cls-3" d="M343,149.4l-4.36,10.47a26.21,26.21,0,0,0-9.77-3.49l-21.94,52.69H318.1l-3,7.18H303.88l3-7.18h-7.4v-53h25.47a27.87,27.87,0,0,1,3.87.28l2.87-7Z"/></g></g><g id="Group_38" data-name="Group 38"><g id="Group_37" data-name="Group 37"><g id="Group_35" data-name="Group 35"><path class="cls-4" d="M207.12,198a4.12,4.12,0,0,1-.86.86L173.44,224a4.35,4.35,0,1,1-5.3-6.89L192,198.82a4.31,4.31,0,0,0,.86-6,4.38,4.38,0,0,0-.86-.86L168.14,173.6a4.35,4.35,0,1,1,5.3-6.89l32.82,25.21A4.32,4.32,0,0,1,207.12,198Z"/></g><g id="Group_36" data-name="Group 36"><path class="cls-4" d="M184.8,198.14a4.35,4.35,0,0,1-6.09.8h0l-32.83-25.22a4.32,4.32,0,0,1-.86-6,5,5,0,0,1,.86-.86l32.83-25.21A4.34,4.34,0,1,1,184,148.5l-23.85,18.32a4.31,4.31,0,0,0-.86,6,4.72,4.72,0,0,0,.86.87L184,192.05A4.34,4.34,0,0,1,184.8,198.14Z"/></g></g></g></g></g></g></svg>